Coordinates
version=1
nRows=9
nColumns=36
inDegrees=yes

Units are S.I. units (second, meters, Newtons, ...)
If the header above contains a line with 'inDegrees', this indicates whether rotational values are in degrees (yes) or radians (no).

endheader
time	pelvis_tilt	pelvis_list	pelvis_rotation	pelvis_tx	pelvis_ty	pelvis_tz	hip_flexion_r	hip_adduction_r	hip_rotation_r	knee_angle_r	knee_angle_r_beta	ankle_angle_r	subtalar_angle_r	mtp_angle_r	hip_flexion_l	hip_adduction_l	hip_rotation_l	knee_angle_l	knee_angle_l_beta	ankle_angle_l	subtalar_angle_l	mtp_angle_l	lumbar_extension	lumbar_bending	lumbar_rotation	arm_flex_r	arm_add_r	arm_rot_r	elbow_flex_r	pro_sup_r	arm_flex_l	arm_add_l	arm_rot_l	elbow_flex_l	pro_sup_l
     44.90000000	     -5.94384211	      6.19812986	      1.67901324	      0.88679791	      0.91135299	      0.75060681	     -8.20490255	     -6.17599414	     12.79550188	     18.40086957	      0.32115576	     19.18165389	     -1.37048072	     -7.49999987	     42.48985846	      4.04226883	      2.08668205	     30.14139731	      0.52606662	      7.77637425	     -3.30447672	     -7.49999987	    -17.88018092	     -9.86551392	     10.12917029	     13.76687164	    -19.83284251	     18.69471356	     40.29999627	     71.32704339	      1.20994282	    -10.57541760	      0.30836051	     19.22683212	     72.38100007
     44.91666670	     -6.42077450	      6.36689651	      1.85298572	      0.89435206	      0.91451053	      0.74483720	     -8.34333843	     -6.56952133	     12.14015968	     19.76636451	      0.34498814	     16.73628614	     -1.82554786	     -7.49999987	     42.45791739	      4.72742146	      2.36367653	     32.35516726	      0.56470420	      7.17535218	     -4.04299845	     -7.49999987	    -16.88458546	    -10.41737832	     11.54790891	     10.89156595	    -20.02001515	     15.76703945	     41.56008599	     71.16253873	      1.73874118	    -10.89090627	      2.68286084	     17.85219815	     74.94917627
     44.93333330	     -6.69794631	      6.82343647	      2.04808222	      0.90408917	      0.91900867	      0.73742650	     -8.78344614	     -7.19919055	     11.57399481	     21.08350962	      0.36797666	     13.65844787	     -2.77218486	     -7.49999987	     41.71054976	      5.76330813	      2.55359770	     33.88309054	      0.59137149	      6.92365488	     -4.85808430	     -7.49999987	    -15.89918109	    -11.08335034	     11.48944392	      9.18695883	    -19.71179077	     15.41217305	     41.18195108	     71.14559215	      0.92909945	    -11.21284243	      2.79158070	     17.88830370	     75.02265562
     44.95000000	     -6.73440957	      7.40468382	      2.35696703	      0.91194253	      0.92633666	      0.73067181	     -9.27287944	     -7.91116784	     10.76497213	     22.68399645	      0.39591043	     10.21891065	     -3.75232185	     -7.49999987	     40.18489827	      7.06935967	      2.91993558	     34.59632988	      0.60381987	      6.86048577	     -5.74664695	     -7.49999987	    -15.11118723	    -11.74140071	     11.46565976	      7.07790226	    -19.13390292	     13.95174253	     40.55427862	     70.70772076	      0.53728759	    -11.47966242	      3.51804182	     17.41610769	     74.54843284
     44.96666670	     -6.60067971	      7.72113039	      2.85361619	      0.91513293	      0.93576312	      0.72614268	     -9.34671919	     -8.24680007	      9.79749412	     24.92814865	      0.43507827	      6.05568697	     -5.03932979	     -7.49999987	     38.05329129	      8.25613631	      3.82978635	     34.38982601	      0.60021569	      6.69877153	     -6.84152165	     -7.49999987	    -14.66866106	    -11.97243340	     10.92552440	      5.38381408	    -18.39855053	     12.76205265	     39.62710353	     70.29295305	      0.20943497	    -11.67638831	      4.07836333	     17.14766633	     73.84893590
     44.98333330	     -6.30130255	      7.50223908	      3.47605313	      0.91454896	      0.94335919	      0.72365899	     -8.65160249	     -7.94379714	      8.70384006	     28.23501693	      0.49279401	      0.97463113	     -6.29024245	     -7.49999987	     35.54061987	      8.90350024	      5.29829276	     33.39262862	      0.58281132	      6.48581692	     -7.88426300	     -7.49999987	    -14.74423109	    -11.55176566	     10.04829757	      4.17528298	    -17.82896603	     11.71040739	     38.84171562	     69.77577303	      0.14897765	    -11.83866168	      4.64223929	     17.26349808	     72.94350385
     45.00000000	     -5.85749854	      6.86916797	      4.13066517	      0.91385218	      0.94691881	      0.72207821	     -7.11726661	     -7.21503594	      7.40069864	     32.80038458	      0.57247471	     -4.23100588	     -7.20322346	     -7.49999987	     32.89394002	      8.98935361	      7.05953303	     32.02923313	      0.55901557	      6.74292355	     -8.51081160	     -7.49999987	    -15.27733020	    -10.69962236	      9.00991659	      3.32456897	    -17.54650822	     11.28706750	     38.51198056	     69.67533535	      0.24239869	    -12.01546122	      4.98447144	     18.15220848	     72.73001862
     45.01666670	     -5.19569413	      6.06614515	      4.40797577	      0.91496813	      0.94863628	      0.72059613	     -4.93821843	     -6.39025724	      6.27300394	     38.40258964	      0.67025163	     -8.35364960	     -7.77549286	     -7.49999987	     30.22139638	      8.55591858	      8.54977072	     30.78862105	      0.53736281	      7.39972321	     -9.08950099	     -7.49999987	    -16.15579877	     -9.68685039	      8.09857576	      2.99602407	    -17.37414977	     10.86592294	     38.12082537	     69.71399781	      0.52324334	    -12.06737719	      5.38206039	     18.93599582	     72.59733778
     45.03333330	     -4.46861300	      5.41957849	      4.40574691	      0.91711330	      0.95130534	      0.71902005	     -2.53667718	     -5.79452212	      5.28002512	     44.11149851	      0.76989089	    -10.56101061	     -8.23382080	     -7.49999987	     27.62509660	      7.98142780	      9.48260899	     29.75349139	      0.51929639	      8.25523588	     -9.51733575	     -7.49999987	    -17.11143323	     -8.93805933	      7.35804490	      2.78728118	    -17.29162197	     10.61514374	     37.75372462	     69.86046091	      0.75374214	    -12.12845792	      5.72734867	     19.93481040	     72.40541335
